<svg xmlns="http://www.w3.org/2000/svg" viewBox="0 0 900 540" font-family="Consolas, 'SF Mono', monospace">
  <rect width="900" height="540" fill="#202124"/>
  <!-- toolbar -->
  <rect x="0" y="0" width="900" height="34" fill="#292a2d"/>
  <circle cx="20" cy="17" r="8" fill="#3c4043" stroke="#5f6368"/>
  <text x="20" y="21" font-size="10" fill="#42b883" text-anchor="middle">⌖</text>
  <rect x="40" y="7" width="200" height="20" rx="4" fill="#171717" stroke="#3c4043"/>
  <text x="48" y="21" font-size="11" fill="#9aa0a6">Filter components...</text>
  <circle cx="880" cy="17" r="9" fill="#171717" stroke="#3c4043"/>
  <text x="880" y="21" font-size="10" fill="#9aa0a6" text-anchor="middle">⚙</text>

  <!-- left tree panel -->
  <rect x="0" y="34" width="330" height="506" fill="#202124" stroke="#3c4043"/>
  <text x="14" y="56" font-size="12" fill="#9aa0a6">App</text>
  <text x="30" y="76" font-size="12" fill="#c58af9">AppShell</text>
  <text x="46" y="96" font-size="12" fill="#c58af9">NavigationDrawer</text>
  <text x="46" y="116" font-size="12" fill="#c58af9">RouterView</text>

  <!-- selected row highlight -->
  <rect x="0" y="126" width="330" height="20" fill="#31415e"/>
  <rect x="0" y="126" width="3" height="20" fill="#42b883"/>
  <text x="62" y="140" font-size="12" fill="#8ab4f8" font-weight="bold">CustomersPage</text>

  <text x="78" y="160" font-size="12" fill="#c58af9">VDataTableServer</text>
  <text x="94" y="180" font-size="11" fill="#5f6368">item-slot × N righe</text>
  <text x="78" y="200" font-size="12" fill="#c58af9">VDialog</text>
  <text x="94" y="220" font-size="12" fill="#c58af9">VCard</text>

  <!-- callout 1: tree -->
  <circle cx="310" cy="56" r="9" fill="#42b883"/>
  <text x="310" y="60" font-size="11" fill="#0b0b0b" text-anchor="middle" font-weight="bold">1</text>

  <!-- callout 2: selected -->
  <circle cx="310" cy="136" r="9" fill="#42b883"/>
  <text x="310" y="140" font-size="11" fill="#0b0b0b" text-anchor="middle" font-weight="bold">2</text>

  <!-- right inspector -->
  <rect x="330" y="34" width="570" height="506" fill="#232326" stroke="#3c4043"/>
  <text x="346" y="58" font-size="13" fill="#e8eaed" font-weight="bold">&lt;CustomersPage&gt;</text>

  <!-- tabs -->
  <text x="346" y="82" font-size="11" fill="#9aa0a6">Props</text>
  <text x="400" y="82" font-size="11" fill="#42b883" font-weight="bold">State</text>
  <rect x="398" y="86" width="34" height="2" fill="#42b883"/>
  <text x="446" y="82" font-size="11" fill="#9aa0a6">Setup</text>
  <text x="496" y="82" font-size="11" fill="#9aa0a6">Emits</text>

  <!-- callout 3: state tab -->
  <circle cx="530" cy="78" r="9" fill="#42b883"/>
  <text x="530" y="82" font-size="11" fill="#0b0b0b" text-anchor="middle" font-weight="bold">3</text>

  <!-- state rows -->
  <g font-size="12">
    <text x="346" y="112" fill="#8ab4f8">search</text>
    <text x="420" y="112" fill="#f28b82">""</text>

    <text x="346" y="136" fill="#8ab4f8">dialog</text>
    <text x="420" y="136" fill="#ffb04c">false</text>
    <circle cx="700" cy="132" r="8" fill="none" stroke="#9aa0a6"/>
    <text x="700" y="136" font-size="9" fill="#9aa0a6" text-anchor="middle">✎</text>

    <text x="346" y="160" fill="#8ab4f8">editedItem</text>
    <text x="440" y="160" fill="#9aa0a6">Object</text>
    <text x="360" y="182" fill="#8ab4f8">name:</text>
    <text x="420" y="182" fill="#f28b82">""</text>
    <text x="360" y="202" fill="#8ab4f8">email:</text>
    <text x="420" y="202" fill="#f28b82">""</text>
  </g>

  <!-- callout 4: edit icon -->
  <circle cx="700" cy="132" r="9" fill="#42b883" opacity="0"/>
  <circle cx="726" cy="132" r="9" fill="#42b883"/>
  <text x="726" y="136" font-size="11" fill="#0b0b0b" text-anchor="middle" font-weight="bold">4</text>

  <line x1="346" y1="230" x2="884" y2="230" stroke="#3c4043"/>
  <text x="346" y="252" font-size="12" fill="#e8eaed" font-weight="bold">Setup</text>
  <text x="346" y="276" font-size="12" fill="#c58af9">fetchAll</text>
  <text x="420" y="276" font-size="11" fill="#5f6368">ƒ (function)</text>
</svg>
